<?xml version="1.0" encoding="UTF-8"?>
<svg xmlns="http://www.w3.org/2000/svg" viewBox="0 0 891.78 884.78">
  <g isolation="isolate">
    <g id="_Layer_" data-name="&amp;lt;Layer&amp;gt;">
      <g>
        <g>
          <path d="m269.48,635.62c-96.17,0-174.4-78.24-174.4-174.4v-28.63c-4.09-7.15-7.67-14.6-10.69-22.2-26.53-66.65-10-141.61,42.12-190.96l109.75-104.23c32.38-30.9,75.04-47.95,120.07-47.95s87.64,17.06,120.23,48.03l109.72,104.32c52.06,49.29,68.5,124.28,41.86,191.02-2.96,7.47-6.51,14.84-10.58,21.96v28.63c0,96.16-78.24,174.4-174.39,174.4h-173.68Z" fill="#ff00c7" opacity="0"/>
          <path d="m269.48,603.04c-78.2,0-141.83-63.62-141.83-141.82v-37.77c-5.1-7.81-9.41-16.1-12.87-24.75-21.09-53.66-7.46-116.05,33.82-155.4l110.16-104.53c25.67-25.03,60.4-38.95,97.56-38.95s71.68,14.03,98.19,39.52l109.32,103.87c41.46,38.81,55.36,100.93,34.44,154.44-3.67,9.16-8.12,17.75-13.3,25.71v37.85c0,78.2-63.62,141.82-141.81,141.82h-173.68Z" fill="#ff00c8" opacity="0"/>
          <path d="m269.48,577.98c-64.39,0-116.77-52.38-116.77-116.76v-45.62c-6.01-8.08-10.93-16.87-14.68-26.21-17.36-44.2-6.14-95.55,27.85-127.94l110.12-104.49c21.13-20.6,49.73-32.07,80.32-32.07s59,11.55,80.83,32.53l109.42,103.97c34.13,31.95,45.58,83.11,28.36,127.16-3.92,9.77-8.93,18.79-15.02,27v45.68c0,64.38-52.38,116.76-116.75,116.76h-173.68Z" fill="#ff00c8" opacity=".02"/>
          <path d="m269.48,552.92c-50.56,0-91.71-41.13-91.71-91.7v-54.48c-6.96-7.87-12.57-16.91-16.47-26.66-13.64-34.73-4.83-75.04,21.87-100.49l110.08-104.46c16.59-16.17,39.08-25.19,63.08-25.19s46.33,9.07,63.47,25.54l109.52,104.06c26.8,25.09,35.81,65.28,22.28,99.88-4.03,10.07-9.71,19.31-16.74,27.29v54.51c0,50.57-41.13,91.7-91.69,91.7h-173.68Z" fill="#ff00c8" opacity=".03"/>
          <path d="m269.48,527.86c-36.75,0-66.65-29.9-66.65-66.64v-64.87c-8-6.91-14.3-15.66-18.28-25.6-9.91-25.24-3.5-54.53,15.9-73.02l110.03-104.42c12.05-11.73,28.41-18.32,45.83-18.32s33.66,6.59,46.12,18.56l109.62,104.15c19.46,18.22,26.03,47.46,16.2,72.6-4.07,10.19-10.42,19.07-18.47,26.06v64.86c0,36.74-29.9,66.64-66.64,66.64h-173.68Z" fill="#ff00c8" opacity=".04"/>
          <g opacity=".05">
            <path d="m269.48,502.81c-22.94,0-41.59-18.65-41.59-41.58v-78.04c-9.08-4.56-16.3-12.33-20.08-21.75-6.18-15.72-2.19-34.02,9.92-45.56l109.99-104.39c7.56-7.36,17.73-11.44,28.59-11.44s20.99,4.11,28.75,11.57l109.73,104.25c12.17,11.4,16.26,29.62,10.12,45.32-3.83,9.59-11.08,17.46-20.19,22.03v78.01c0,22.93-18.65,41.58-41.58,41.58h-173.68Zm132.09-83.17v-32.06h-90.51v32.06h90.51Zm-39.53-115.23l-5.72-5.44-5.72,5.44h11.45Z" fill="#ff00c8"/>
          </g>
          <g opacity=".05">
            <path d="m269.48,497.79c-20.18,0-36.58-16.4-36.58-36.57v-81.27c-9.23-3.71-16.72-11.11-20.43-20.38-5.44-13.82-1.94-29.91,8.73-40.07l109.98-104.38c6.65-6.47,15.61-10.07,25.14-10.07s18.45,3.61,25.27,10.17l109.76,104.27c10.71,10.02,14.3,26.06,8.9,39.87-3.76,9.43-11.28,16.91-20.53,20.62v81.24c0,20.17-16.4,36.57-36.56,36.57h-173.68Zm137.1-73.14v-42.09h-100.54v42.09h100.54Zm-31.98-115.23l-18.28-17.36-18.28,17.36h36.56Z" fill="#ff00c8"/>
          </g>
          <g opacity=".05">
            <path d="m269.48,515.34c-29.84,0-54.12-24.28-54.12-54.11v-70.98c-8.53-6.01-15.26-14.4-19.16-24.16-8.07-20.48-2.86-44.27,12.9-59.29l110.01-104.4c9.81-9.54,23.08-14.89,37.22-14.89s27.32,5.35,37.43,15.06l109.68,104.2c15.82,14.8,21.14,38.54,13.16,58.97-3.97,9.96-10.75,18.47-19.32,24.52v70.96c0,29.84-24.28,54.11-54.11,54.11h-173.68Zm119.56-108.23v-7.01h-65.45v7.01h65.45Z" fill="#ff00c8"/>
          </g>
          <g opacity=".05">
            <path d="m269.48,492.78c-17.4,0-31.57-14.15-31.57-31.56v-84.85c-9.38-2.65-17.13-9.51-20.79-18.66-4.7-11.92-1.68-25.81,7.53-34.58l109.96-104.37c5.75-5.6,13.47-8.69,21.7-8.69s15.92,3.11,21.8,8.76l109.79,104.3c9.24,8.66,12.33,22.5,7.67,34.41-3.7,9.3-11.48,16.22-20.87,18.85v84.83c0,17.41-14.15,31.56-31.55,31.56h-173.68Zm142.11-63.12v-52.11h-110.56v52.11h110.56Zm-24.43-115.23l-30.84-29.29-30.84,29.29h61.68Z" fill="#ff00c8"/>
          </g>
          <g opacity=".05">
            <path d="m269.48,487.77c-14.64,0-26.55-11.9-26.55-26.55v-88.92c-9.35-1.27-17.6-7.57-21.14-16.45-3.96-10.02-1.41-21.71,6.34-29.09l109.95-104.37c4.84-4.7,11.33-7.31,18.25-7.31s13.38,2.61,18.32,7.36l109.82,104.32c7.76,7.28,10.37,18.93,6.45,28.96-3.63,9.13-11.75,15.36-21.22,16.59v88.91c0,14.64-11.9,26.55-26.54,26.55h-173.68Zm147.12-53.09v-62.14h-120.58v62.14h120.58Zm-16.9-115.23l-43.38-41.21-43.38,41.21h86.77Z" fill="#ff00c8"/>
          </g>
          <g opacity=".05">
            <path d="m269.48,482.76c-11.87,0-21.54-9.67-21.54-21.54v-93.69h-1.51c-8.71,0-16.76-5.44-19.99-13.53-3.22-8.14-1.15-17.61,5.14-23.6l109.93-104.37c3.92-3.8,9.2-5.93,14.81-5.93s10.85,2.12,14.85,5.97l109.85,104.33c6.29,5.91,8.4,15.36,5.23,23.51-3.3,8.29-11.16,13.63-20.05,13.63h-1.51v93.69c0,11.87-9.65,21.54-21.53,21.54h-173.68Zm152.14-43.07v-72.16h-130.61v72.16h130.61Zm-9.35-115.23l-55.94-53.14-55.94,53.14h111.88Z" fill="#ff00c8"/>
          </g>
          <g mix-blend-mode="multiply">
            <path d="m299.55,480.25c-7.73,0-14.02-6.29-14.02-14.02v-101.21h-9.03c-5.68,0-10.91-3.54-13.01-8.81-2.09-5.29-.75-11.46,3.35-15.36l109.92-104.37c2.56-2.48,5.99-3.87,9.64-3.87s7.05,1.37,9.65,3.87l109.86,104.36c4.1,3.84,5.48,10,3.4,15.31-2.14,5.38-7.25,8.86-13.04,8.86h-9.03v101.21c0,7.72-6.28,14.02-14.01,14.02h-173.68Zm159.65-28.04v-87.2h-145.64v87.2h145.64Zm1.95-115.23l-74.77-71.02-74.77,71.02h149.53Z" fill="#ccc"/>
          </g>
          <path d="m269.48,475.24c-7.73,0-14.02-6.29-14.02-14.02v-101.21h-9.03c-5.68,0-10.91-3.54-13.01-8.81-2.09-5.29-.75-11.46,3.35-15.36l109.92-104.37c2.56-2.48,5.99-3.87,9.64-3.87s7.05,1.37,9.65,3.87l109.86,104.36c4.1,3.84,5.48,10,3.4,15.31-2.14,5.38-7.25,8.86-13.04,8.86h-9.03v101.21c0,7.72-6.28,14.02-14.01,14.02h-173.68Zm159.65-28.04v-87.2h-145.64v87.2h145.64Zm1.95-115.23l-74.77-71.02-74.77,71.02h149.53Z" fill="#f400cb"/>
          <path d="m269.48,470.23c-4.97,0-9.01-4.04-9.01-9.01v-106.22h-14.04c-3.64,0-7.01-2.27-8.36-5.65-1.35-3.4-.48-7.37,2.15-9.87l109.91-104.37c1.65-1.59,3.86-2.48,6.19-2.48s4.53.88,6.19,2.48l109.88,104.37c2.63,2.47,3.52,6.44,2.18,9.85-1.37,3.45-4.66,5.67-8.37,5.67h-14.04v106.22c0,4.96-4.04,9.01-9,9.01h-173.68Zm164.67-18.01v-97.22h-155.67v97.22h155.67Zm9.48-115.23l-87.31-82.94-87.31,82.94h174.62Z" fill="#ff55eb"/>
          <path d="m269.48,467.72c-3.59,0-6.51-2.92-6.51-6.5v-108.73h-16.54c-2.63,0-5.05-1.64-6.02-4.07-.98-2.47-.36-5.33,1.54-7.13l109.91-104.37c1.2-1.15,2.79-1.79,4.47-1.79s3.26.63,4.47,1.79l109.88,104.37c1.91,1.79,2.53,4.66,1.57,7.13-.98,2.48-3.35,4.08-6.04,4.08h-16.54v108.73c0,3.58-2.92,6.5-6.49,6.5h-173.68Zm167.17-13v-102.23h-160.68v102.23h160.68Zm13.26-115.23l-93.59-88.9-93.59,88.9h187.18Z" fill="#ffa9f0"/>
          <path d="m269.48,465.22c-2.21,0-4-1.79-4-3.99v-111.24h-19.05c-1.62,0-3.1-1-3.7-2.5-.6-1.51-.23-3.27.94-4.39l109.91-104.37c1.01-.97,2.15-1.1,2.75-1.1s1.74.14,2.73,1.09l109.89,104.38c1.18,1.11,1.55,2.88.95,4.39-.6,1.52-2.06,2.5-3.7,2.5h-19.05v111.24c0,2.2-1.79,3.99-3.99,3.99h-173.68Zm3.99-7.99h165.69v-107.24h-165.69v107.24Zm-17.01-115.23h199.73l-99.87-94.86-99.87,94.86Z" fill="#ffc0f4"/>
        </g>
        <g>
          <path d="m319.24,697.41c-96.17,0-174.4-78.24-174.4-174.4s78.24-174.38,174.4-174.38h74.15c96.15,0,174.39,78.23,174.39,174.38s-78.24,174.4-174.39,174.4h-74.15Z" fill="#ff00c7" opacity="0"/>
          <path d="m319.24,664.84c-78.2,0-141.83-63.63-141.83-141.83s63.63-141.8,141.83-141.8h74.15c78.2,0,141.81,63.61,141.81,141.8s-63.62,141.83-141.81,141.83h-74.15Z" fill="#ff00c8" opacity="0"/>
          <path d="m319.24,639.78c-64.39,0-116.77-52.38-116.77-116.77s52.38-116.75,116.77-116.75h74.15c64.37,0,116.75,52.37,116.75,116.75s-52.38,116.77-116.75,116.77h-74.15Z" fill="#ff00c8" opacity=".02"/>
          <path d="m319.24,614.72c-50.56,0-91.71-41.15-91.71-91.71s41.15-91.69,91.71-91.69h74.15c50.56,0,91.69,41.13,91.69,91.69s-41.13,91.71-91.69,91.71h-74.15Z" fill="#ff00c8" opacity=".03"/>
          <path d="m319.24,589.66c-36.75,0-66.65-29.9-66.65-66.65s29.9-66.64,66.65-66.64h74.15c36.73,0,66.64,29.89,66.64,66.64s-29.9,66.65-66.64,66.65h-74.15Z" fill="#ff00c8" opacity=".04"/>
          <path d="m319.24,564.6c-22.94,0-41.59-18.65-41.59-41.59s18.65-41.59,41.59-41.59h74.15c22.92,0,41.58,18.65,41.58,41.59s-18.65,41.59-41.58,41.59h-74.15Z" fill="#ff00c8" opacity=".05"/>
          <path d="m319.24,559.59c-20.18,0-36.58-16.4-36.58-36.58s16.4-36.58,36.58-36.58h74.15c20.16,0,36.56,16.4,36.56,36.58s-16.4,36.58-36.56,36.58h-74.15Z" fill="#ff00c8" opacity=".05"/>
          <path d="m319.24,577.13c-29.84,0-54.12-24.28-54.12-54.12s24.28-54.12,54.12-54.12h74.15c29.83,0,54.11,24.28,54.11,54.12s-24.28,54.12-54.11,54.12h-74.15Z" fill="#ff00c8" opacity=".05"/>
          <path d="m319.24,554.58c-17.4,0-31.57-14.17-31.57-31.57s14.17-31.57,31.57-31.57h74.15c17.4,0,31.55,14.17,31.55,31.57s-14.15,31.57-31.55,31.57h-74.15Z" fill="#ff00c8" opacity=".05"/>
          <path d="m319.24,549.56c-14.64,0-26.55-11.92-26.55-26.55s11.92-26.55,26.55-26.55h74.15c14.64,0,26.54,11.92,26.54,26.55s-11.9,26.55-26.54,26.55h-74.15Z" fill="#ff00c8" opacity=".05"/>
          <path d="m319.24,544.55c-11.87,0-21.54-9.67-21.54-21.54s9.67-21.54,21.54-21.54h74.15c11.87,0,21.53,9.67,21.53,21.54s-9.65,21.54-21.53,21.54h-74.15Z" fill="#ff00c8" opacity=".05"/>
          <path d="m349.31,542.05c-7.73,0-14.02-6.29-14.02-14.02s6.29-14.02,14.02-14.02h74.15c7.73,0,14.01,6.29,14.01,14.02s-6.28,14.02-14.01,14.02h-74.15Z" fill="#ccc" mix-blend-mode="multiply"/>
          <path d="m319.24,537.03c-7.73,0-14.02-6.29-14.02-14.02s6.29-14.02,14.02-14.02h74.15c7.73,0,14.01,6.29,14.01,14.02s-6.28,14.02-14.01,14.02h-74.15Z" fill="#f400cb"/>
          <path d="m319.24,532.02c-4.97,0-9.01-4.04-9.01-9.01s4.04-9.01,9.01-9.01h74.15c4.95,0,9,4.04,9,9.01s-4.04,9.01-9,9.01h-74.15Z" fill="#ff55eb"/>
          <path d="m319.24,529.52c-3.59,0-6.51-2.92-6.51-6.51s2.92-6.51,6.51-6.51h74.15c3.57,0,6.49,2.92,6.49,6.51s-2.92,6.51-6.49,6.51h-74.15Z" fill="#ffa9f0"/>
          <path d="m319.24,527.01c-2.21,0-4-1.79-4-4s1.79-4,4-4h74.15c2.19,0,3.99,1.79,3.99,4s-1.79,4-3.99,4h-74.15Z" fill="#ffc0f4"/>
        </g>
        <g>
          <path d="m283.72,757.67c-96.17,0-174.4-78.24-174.4-174.4s78.24-174.38,174.4-174.38h145.22c96.15,0,174.39,78.23,174.39,174.38s-78.24,174.4-174.39,174.4h-145.22Z" fill="#ff00c7" opacity="0"/>
          <path d="m283.72,725.09c-78.2,0-141.83-63.63-141.83-141.83s63.63-141.82,141.83-141.82h145.22c78.2,0,141.81,63.62,141.81,141.82s-63.62,141.83-141.81,141.83h-145.22Z" fill="#ff00c8" opacity="0"/>
          <path d="m283.72,700.03c-64.39,0-116.77-52.38-116.77-116.77s52.38-116.77,116.77-116.77h145.22c64.37,0,116.75,52.38,116.75,116.77s-52.38,116.77-116.75,116.77h-145.22Z" fill="#ff00c8" opacity=".02"/>
          <path d="m283.72,674.97c-50.56,0-91.71-41.15-91.71-91.71s41.15-91.71,91.71-91.71h145.22c50.56,0,91.69,41.15,91.69,91.71s-41.13,91.71-91.69,91.71h-145.22Z" fill="#ff00c8" opacity=".03"/>
          <path d="m283.72,649.92c-36.75,0-66.65-29.9-66.65-66.65s29.9-66.65,66.65-66.65h145.22c36.73,0,66.64,29.9,66.64,66.65s-29.9,66.65-66.64,66.65h-145.22Z" fill="#ff00c8" opacity=".04"/>
          <path d="m283.72,624.86c-22.94,0-41.59-18.65-41.59-41.59s18.65-41.59,41.59-41.59h145.22c22.92,0,41.58,18.65,41.58,41.59s-18.65,41.59-41.58,41.59h-145.22Z" fill="#ff00c8" opacity=".05"/>
          <path d="m283.72,619.84c-20.18,0-36.58-16.4-36.58-36.58s16.4-36.58,36.58-36.58h145.22c20.16,0,36.56,16.4,36.56,36.58s-16.4,36.58-36.56,36.58h-145.22Z" fill="#ff00c8" opacity=".05"/>
          <path d="m283.72,637.39c-29.84,0-54.12-24.28-54.12-54.12s24.28-54.12,54.12-54.12h145.22c29.83,0,54.11,24.28,54.11,54.12s-24.28,54.12-54.11,54.12h-145.22Z" fill="#ff00c8" opacity=".05"/>
          <path d="m283.72,614.83c-17.4,0-31.57-14.17-31.57-31.57s14.17-31.57,31.57-31.57h145.22c17.4,0,31.55,14.17,31.55,31.57s-14.15,31.57-31.55,31.57h-145.22Z" fill="#ff00c8" opacity=".05"/>
          <path d="m283.72,609.82c-14.64,0-26.55-11.92-26.55-26.55s11.92-26.55,26.55-26.55h145.22c14.64,0,26.54,11.92,26.54,26.55s-11.9,26.55-26.54,26.55h-145.22Z" fill="#ff00c8" opacity=".05"/>
          <path d="m283.72,604.81c-11.87,0-21.54-9.67-21.54-21.54s9.67-21.54,21.54-21.54h145.22c11.87,0,21.53,9.67,21.53,21.54s-9.65,21.54-21.53,21.54h-145.22Z" fill="#ff00c8" opacity=".05"/>
          <path d="m313.79,602.3c-7.73,0-14.02-6.29-14.02-14.02s6.29-14.02,14.02-14.02h145.22c7.73,0,14.01,6.29,14.01,14.02s-6.28,14.02-14.01,14.02h-145.22Z" fill="#ccc" mix-blend-mode="multiply"/>
          <path d="m283.72,597.29c-7.73,0-14.02-6.29-14.02-14.02s6.29-14.02,14.02-14.02h145.22c7.73,0,14.01,6.29,14.01,14.02s-6.28,14.02-14.01,14.02h-145.22Z" fill="#f400cb"/>
          <path d="m283.72,592.28c-4.97,0-9.01-4.04-9.01-9.01s4.04-9.01,9.01-9.01h145.22c4.95,0,9,4.04,9,9.01s-4.04,9.01-9,9.01h-145.22Z" fill="#ff55eb"/>
          <path d="m283.72,589.77c-3.59,0-6.51-2.92-6.51-6.51s2.92-6.51,6.51-6.51h145.22c3.57,0,6.49,2.92,6.49,6.51s-2.92,6.51-6.49,6.51h-145.22Z" fill="#ffa9f0"/>
          <path d="m283.72,587.27c-2.21,0-4-1.79-4-4s1.79-4,4-4h145.22c2.19,0,3.99,1.79,3.99,4s-1.79,4-3.99,4h-145.22Z" fill="#ffc0f4"/>
        </g>
        <g>
          <path d="m483.34,973.2c-96.22,0-174.52-78.23-174.52-174.38v-281.69c0-96.22,78.3-174.49,174.52-174.49h281.69c96.15,0,174.38,78.27,174.38,174.49v281.69c0,96.15-78.23,174.38-174.38,174.38h-281.69Z" fill="#ff00c7" opacity="0"/>
          <path d="m483.34,940.62c-79.59,0-141.94-62.29-141.94-141.8v-281.69c0-79.58,62.35-141.91,141.94-141.91h281.69c79.51,0,141.8,62.34,141.8,141.91v281.69c0,78.18-63.62,141.8-141.8,141.8h-281.69Z" fill="#ff00c8" opacity="0"/>
          <g opacity=".02">
            <path d="m483.34,915.56c-65.54,0-116.88-51.29-116.88-116.74v-281.69c0-65.53,51.34-116.86,116.88-116.86h281.69c65.45,0,116.74,51.33,116.74,116.86v281.69c0,64.37-52.37,116.74-116.74,116.74h-281.69Zm164.95-233.48v-48.21h-48.2v48.21h48.2Z" fill="#ff00c8"/>
          </g>
          <g opacity=".03">
            <path d="m483.34,890.5c-51.49,0-91.82-40.28-91.82-91.68v-281.69c0-51.49,40.34-91.81,91.82-91.81h281.69c51.4,0,91.68,40.32,91.68,91.81v281.69c0,50.55-41.13,91.68-91.68,91.68h-281.69Zm190.01-183.36v-98.33h-98.32v98.33h98.32Z" fill="#ff00c8"/>
          </g>
          <g opacity=".04">
            <path d="m483.34,865.44c-37.43,0-66.76-29.26-66.76-66.62v-281.69c0-37.43,29.33-66.76,66.76-66.76h281.69c37.36,0,66.62,29.32,66.62,66.76v281.69c0,36.73-29.89,66.62-66.62,66.62h-281.69Zm215.07-133.24v-148.45h-148.43v148.45h148.43Z" fill="#ff00c8"/>
          </g>
          <g opacity=".05">
            <path d="m483.34,840.38c-23.38,0-41.7-18.25-41.7-41.56v-281.69c0-23.38,18.32-41.7,41.7-41.7h281.69c23.31,0,41.56,18.32,41.56,41.7v281.69c0,22.92-18.64,41.56-41.56,41.56h-281.69Zm240.13-83.12v-198.57h-198.55v198.57h198.55Z" fill="#ff00c8"/>
          </g>
          <g opacity=".05">
            <path d="m483.34,835.37c-20.57,0-36.69-16.06-36.69-36.55v-281.69c0-20.57,16.12-36.69,36.69-36.69h281.69c20.49,0,36.55,16.12,36.55,36.69v281.69c0,20.15-16.4,36.55-36.55,36.55h-281.69Zm245.14-73.1v-208.59h-208.58v208.59h208.58Z" fill="#ff00c8"/>
          </g>
          <g opacity=".05">
            <path d="m483.34,852.91c-30.41,0-54.23-23.76-54.23-54.09v-281.69c0-30.41,23.82-54.23,54.23-54.23h281.69c30.33,0,54.09,23.82,54.09,54.23v281.69c0,29.83-24.26,54.09-54.09,54.09h-281.69Zm227.6-108.18v-173.51h-173.49v173.51h173.49Z" fill="#ff00c8"/>
          </g>
          <g opacity=".05">
            <path d="m483.34,830.36c-17.77,0-31.68-13.85-31.68-31.54v-281.69c0-17.77,13.91-31.68,31.68-31.68h281.69c17.68,0,31.54,13.91,31.54,31.68v281.69c0,17.38-14.15,31.54-31.54,31.54h-281.69Zm250.15-63.08v-218.61h-218.6v218.61h218.6Z" fill="#ff00c8"/>
          </g>
          <g opacity=".05">
            <path d="m483.34,825.35c-14.95,0-26.67-11.65-26.67-26.53v-281.69c0-14.95,11.72-26.67,26.67-26.67h281.69c14.88,0,26.53,11.72,26.53,26.67v281.69c0,14.62-11.9,26.53-26.53,26.53h-281.69Zm255.16-53.05v-228.64h-228.62v228.64h228.62Z" fill="#ff00c8"/>
          </g>
          <g opacity=".05">
            <path d="m483.34,820.33c-12.15,0-21.66-9.45-21.66-21.51v-281.69c0-12.15,9.51-21.66,21.66-21.66h281.69c12.06,0,21.51,9.51,21.51,21.66v281.69c0,11.86-9.65,21.51-21.51,21.51h-281.69Zm260.18-43.03v-238.66h-238.65v238.66h238.65Z" fill="#ff00c8"/>
          </g>
          <g mix-blend-mode="multiply">
            <path d="m513.41,817.83c-7.93,0-14.14-6.15-14.14-14v-281.69c0-7.93,6.21-14.14,14.14-14.14h281.69c7.85,0,14,6.21,14,14.14v281.69c0,7.72-6.28,14-14,14h-281.69Zm267.69-27.99v-253.7h-253.68v253.7h253.68Z" fill="#ccc"/>
          </g>
          <path d="m483.34,812.82c-7.93,0-14.14-6.15-14.14-14v-281.69c0-7.93,6.21-14.14,14.14-14.14h281.69c7.85,0,14,6.21,14,14.14v281.69c0,7.72-6.28,14-14,14h-281.69Zm267.69-27.99v-253.7h-253.68v253.7h253.68Z" fill="#f400cb"/>
          <path d="m483.34,807.8c-5.11,0-9.13-3.94-9.13-8.98v-281.69c0-5.11,4.02-9.13,9.13-9.13h281.69c5.04,0,8.98,4.02,8.98,9.13v281.69c0,4.95-4.03,8.98-8.98,8.98h-281.69Zm272.71-17.97v-263.72h-263.71v263.72h263.71Z" fill="#ff55eb"/>
          <path d="m483.34,805.3c-3.72,0-6.62-2.85-6.62-6.48v-281.69c0-3.72,2.9-6.62,6.62-6.62h281.69c3.63,0,6.48,2.9,6.48,6.62v281.69c0,3.57-2.9,6.48-6.48,6.48h-281.69Zm275.21-12.96v-268.73h-268.72v268.73h268.72Z" fill="#ffa9f0"/>
          <path d="m483.34,802.79c-2.31,0-4.11-1.74-4.11-3.97v-281.69c0-2.35,1.77-4.11,4.11-4.11h281.69c2.24,0,3.97,1.81,3.97,4.11v281.69c0,2.19-1.78,3.97-3.97,3.97h-281.69Zm3.99-7.94h273.73v-273.75h-273.73v273.75Z" fill="#ffc0f4"/>
        </g>
        <g>
          <g opacity="0">
            <path d="m144.36,901.46c-111.98,0-203.09-91.11-203.09-203.09V126.54c0-111.97,91.11-203.07,203.09-203.07h307.65c2.76,0,5.47.05,8.13.17,47.2.23,90.58,18.22,123.18,50.72l4.83,4.71,79.32,79.41h93.22l.58,118.06c6.81,19.46,10.22,40.39,9.9,60.82.07.61.14,2.9.14,5.53v391.32h-170.86v267.25H144.36Zm278.19-348.75v-147.85c-66.18-14.44-117.82-65.89-132.53-131.96v279.81h132.53Z" fill="#ff00c7"/>
          </g>
          <g opacity="0">
            <path d="m144.36,868.89c-94.02,0-170.52-76.5-170.52-170.52V126.54C-26.16,32.52,50.34-43.96,144.36-43.96h307.65c5.85,0,11.5.33,17.24,1,35.15,2.01,66.65,15.98,91.1,40.4l4.9,4.75,132.02,132.19c27.07,27,42.12,64.47,41.35,102.91.06,1.73.11,3.59.11,5.6v358.75h-170.86v267.25H144.36Zm310.76-283.6v-209.03c-74.2-2.6-134.07-62.48-136.67-136.67h-61.01v345.71h197.68Z" fill="#ff00c8"/>
          </g>
          <path d="m144.36,843.83c-80.2,0-145.46-65.25-145.46-145.46V126.54C-1.1,46.34,64.15-18.91,144.36-18.91h307.65c5.08,0,10.01.3,15.05.93,29.23,1.5,55.36,12.95,75.59,33.15l5.11,4.98,131.78,131.94c22.48,22.43,34.84,53.52,34,85.43.07,1.64.13,3.42.13,5.37v333.69h-233.48v-225.29h-20.02c-64.37,0-116.74-52.36-116.74-116.72v-20.04h-111.04v395.82h310.42v233.48H144.36Z" fill="#ff00c8" opacity=".02"/>
          <path d="m144.36,818.77c-66.38,0-120.4-54.02-120.4-120.4V126.54C23.96,60.15,77.98,6.15,144.36,6.15h307.65c4.3,0,8.53.28,12.86.85,23.32.99,44.08,9.93,60.09,25.91l5.34,5.2,131.52,131.69c17.91,17.88,27.58,42.59,26.65,67.97.09,1.52.14,3.22.14,5.12v308.63h-183.36v-225.28h-45.08c-50.55,0-91.68-41.12-91.68-91.67v-45.09h-161.16v445.93h310.42v183.36H144.36Z" fill="#ff00c8" opacity=".03"/>
          <path d="m144.36,793.71c-52.57,0-95.34-42.77-95.34-95.34V126.54c0-52.57,42.77-95.34,95.34-95.34h307.65c3.53,0,6.96.25,10.66.8,17.54.48,32.82,6.91,44.58,18.65l5.57,5.42,131.26,131.44c13.34,13.32,20.3,31.6,19.29,50.5.1,1.39.17,3,.17,4.89v283.57h-133.24v-225.27h-70.14c-36.73,0-66.62-29.88-66.62-66.61v-70.14h-211.28v496.04h310.42v133.24H144.36Z" fill="#ff00c8" opacity=".04"/>
          <path d="m144.36,768.65c-38.76,0-70.28-31.52-70.28-70.28V126.54c0-38.76,31.52-70.29,70.28-70.29h307.65c3,0,5.67.28,8.51.77h.31c11.46,0,21.19,3.84,28.72,11.36l5.77,5.62,131.03,131.21c8.73,8.71,13.03,20.77,11.87,33.15.16,1.1.26,2.54.26,4.53v258.51h-83.12v-225.26h-95.2c-22.92,0-41.56-18.64-41.56-41.56v-95.2H157.2v546.15h310.42v83.12H144.36Z" fill="#ff00c8" opacity=".05"/>
          <g opacity=".05">
            <path d="m144.36,763.64c-35.99,0-65.27-29.27-65.27-65.27V126.54c0-35.99,29.27-65.28,65.27-65.28h307.65c2.71,0,5.11.26,7.69.7h.66c5.97,0,16.62.94,25.66,9.96l5.81,5.67,130.99,131.16c7.83,7.82,11.59,18.63,10.37,29.77.19.98.3,2.33.3,4.38v253.5h-73.1v-225.26h-100.21c-20.15,0-36.55-16.4-36.55-36.55v-100.21H152.19v556.18h310.42v73.1H144.36ZM508.64,198.02l-11.93-11.94v11.94h11.93Z" fill="#ff00c8"/>
          </g>
          <path d="m144.36,781.18c-45.66,0-82.81-37.15-82.81-82.81V126.54c0-45.66,37.15-82.82,82.81-82.82h307.65c3.23,0,6.14.26,9.17.72,15.19.31,27.51,5.37,37.22,15.06l5.67,5.52,131.16,131.32c11.03,11.03,16.66,26.17,15.59,41.8.11,1.29.2,2.84.2,4.73v271.04h-108.18v-225.26h-82.67c-29.83,0-54.09-24.27-54.09-54.09v-82.67h-236.34v521.09h310.42v108.18H144.36Z" fill="#ff00c8" opacity=".05"/>
          <g opacity=".05">
            <path d="m144.36,758.62c-33.23,0-60.26-27.04-60.26-60.26V126.54c0-33.23,27.02-60.26,60.26-60.26h307.65c2.51,0,4.73.26,7.13.68l.68-.09c6.01,0,14.91.89,22.64,8.61l5.85,5.71,130.95,131.11c6.96,6.96,10.18,16.64,8.83,26.57.31.71.37,2.61.37,4.04v248.49h-63.08v-225.26h-105.22c-17.39,0-31.54-14.15-31.54-31.54v-105.22H147.17v566.2h310.42v63.08H144.36ZM520.74,203.03l-29.05-29.05v29.05h29.05Z" fill="#ff00c8"/>
          </g>
          <g opacity=".05">
            <path d="m144.36,753.61c-30.46,0-55.24-24.79-55.24-55.24V126.54c0-30.46,24.79-55.25,55.24-55.25h307.65c2.21,0,4.17.24,6.29.6.5-.01,1.01-.02,1.52-.02,6.25,0,13.13,1.19,19.09,7.14l5.89,5.75,130.91,131.06c5.87,5.87,8.54,13.97,7.4,22.35.28,1.85.33,3.49.33,4.71v243.47h-53.05v-225.26h-110.23c-14.62,0-26.53-11.9-26.53-26.53v-110.23H144.36c-1.21,0-2.19.99-2.19,2.2v571.83c0,1.21.98,2.19,2.19,2.19h308.23v53.05H144.36ZM532.85,208.04l-46.16-46.16v46.16h46.16Z" fill="#ff00c8"/>
          </g>
          <g opacity=".05">
            <path d="m144.36,748.6c-27.69,0-50.23-22.54-50.23-50.23V126.54c0-27.7,22.54-50.24,50.23-50.24h307.65c1.91,0,3.62.22,5.45.53,0,0,.93-.11.97-.11,5.77,0,11.8.7,16.94,5.84l5.94,5.8,130.86,131.01c4.95,4.95,7.06,11.78,5.88,18.85.34,1.85.38,3.5.38,4.68v238.46h-43.03v-225.26h-115.24c-11.86,0-21.51-9.65-21.51-21.51v-115.24H144.36c-3.97,0-7.2,3.23-7.2,7.21v571.83c0,3.97,3.23,7.2,7.2,7.2h303.22v43.03H144.36ZM544.95,213.06l-63.27-63.27v63.27h63.27Z" fill="#ff00c8"/>
          </g>
          <g mix-blend-mode="multiply">
            <path d="m174.42,746.09c-23.55,0-42.71-19.16-42.71-42.71V131.55c0-23.56,19.16-42.72,42.71-42.72h307.65c1.47,0,2.78.19,4.19.43l1.11.19s1.08-.2,1.12-.2c4.61,0,8.46.47,11.65,3.65l5.98,5.84,130.79,130.94c3.37,3.37,4.71,8.14,3.64,13.08l-.11.56c.47,1.68.54,3.28.54,4.58v230.94h-27.99v-225.26h-122.76c-7.72,0-14-6.28-14-14v-122.76H174.42c-8.12,0-14.72,6.61-14.72,14.73v571.83c0,8.12,6.61,14.72,14.72,14.72h295.7v27.99H174.42ZM593.15,225.59l-88.93-88.93v88.93h88.93Z" fill="#ccc"/>
          </g>
          <path d="m144.36,741.08c-23.55,0-42.71-19.16-42.71-42.71V126.54c0-23.56,19.16-42.72,42.71-42.72h307.65c1.47,0,2.78.19,4.19.43l1.11.19s1.08-.2,1.12-.2c4.61,0,8.46.47,11.65,3.65l5.98,5.84,130.79,130.94c3.37,3.37,4.71,8.14,3.64,13.09l-.11.56c.47,1.68.54,3.28.54,4.58v230.94h-27.99v-225.26h-122.76c-7.72,0-14-6.28-14-14v-122.76H144.36c-8.12,0-14.72,6.61-14.72,14.73v571.83c0,8.12,6.61,14.72,14.72,14.72h295.7v27.99H144.36ZM563.09,220.57l-88.93-88.93v88.93h88.93Z" fill="#f400cb"/>
          <path d="m144.36,736.07c-20.79,0-37.7-16.92-37.7-37.7V126.54c0-20.8,16.92-37.71,37.7-37.71h307.65c1.17,0,2.22.16,3.35.36l2.59.44.48-.38c.28,0,.56,0,.83,0,3.9,0,5.77.68,7.29,2.19l6.01,5.87,130.75,130.9c2.15,2.15,2.99,5.25,2.29,8.49l-.41,1.94c.61,1.35.73,2.81.73,4.25v225.93h-17.97v-225.26h-127.77c-4.95,0-8.98-4.03-8.98-8.98v-127.77H144.36c-10.88,0-19.73,8.86-19.73,19.74v571.83c0,10.88,8.86,19.73,19.73,19.73h290.69v17.97H144.36Zm430.84-510.49l-106.05-106.04v106.04h106.05Z" fill="#ff55eb"/>
          <path d="m144.36,733.57c-19.41,0-35.2-15.79-35.2-35.2V126.54c0-19.41,15.79-35.2,35.2-35.2h307.65c1.01,0,1.94.15,2.9.32l2.62.44,1.57-.43c.16,0,.33,0,.48,0,2.79,0,4.14.51,5.2,1.56l6.02,5.89,130.74,130.88c1.54,1.54,2.12,3.79,1.61,6.2l-.41,1.94.36.98c.21,1.19.31,2.49.31,3.79v223.43h-12.96v-225.26h-130.28c-3.57,0-6.48-2.9-6.48-6.48V104.29H144.36c-12.26,0-22.24,9.98-22.24,22.25v571.83c0,12.26,9.98,22.24,22.24,22.24h288.18v12.96H144.36Zm436.89-505.47l-114.6-114.6v114.6h114.6Z" fill="#ffa9f0"/>
          <path d="m144.36,731.06c-18.03,0-32.69-14.67-32.69-32.69V126.54c0-18.03,14.67-32.7,32.69-32.7h307.65c1.05,0,2.01.21,3.05.38l2.05.35,2.43-.44c.24-.01.47-.02.7-.02,1.47,0,2.22.34,2.78.89l6.04,5.9,130.72,130.86c1.31,1.32,1.08,3.17.93,3.91l-.41,1.93.34,1.94c.19,1.05.27,2.21.27,3.35v220.92h-7.94v-225.26h-132.79c-2.19,0-3.97-1.78-3.97-3.97V101.78H144.36c-13.64,0-24.75,11.11-24.75,24.75v571.83c0,13.64,11.11,24.75,24.75,24.75h285.68v7.94H144.36ZM464.13,230.6h123.16l-123.16-123.15v123.15Z" fill="#ffc0f4"/>
        </g>
        <g>
          <path d="m567.08,814.04c-54.09,0-105.59-25.6-138.58-68.67-43.06-32.99-68.64-84.48-68.64-138.54s25.6-105.59,68.69-138.58c33.02-43.04,84.52-68.61,138.54-68.61s105.55,25.57,138.54,68.62c43.07,32.98,68.67,84.49,68.67,138.57s-25.59,105.55-68.64,138.54c-32.99,43.07-84.49,68.67-138.57,68.67Z" fill="#ff00c7" opacity="0"/>
          <path d="m567.08,781.46c-46.06,0-88.85-22.14-115.49-59.46-37.13-26.34-59.16-69.01-59.16-115.17s22.14-88.83,59.46-115.47c26.36-37.13,69.03-59.15,115.19-59.15s88.82,22.11,115.46,59.42c37.15,26.35,59.17,69.04,59.17,115.2s-22.14,88.82-59.46,115.46c-26.34,37.15-69.01,59.17-115.17,59.17Z" fill="#ff00c8" opacity="0"/>
          <path d="m567.08,756.4c-39.24,0-76-19.95-97.49-52.45-32.75-21.47-52.1-57.31-52.1-97.12s19.95-75.99,52.45-97.48c21.49-32.75,57.34-52.09,97.13-52.09s75.98,19.93,97.46,52.42c32.75,21.49,52.11,57.34,52.11,97.15s-19.95,75.98-52.45,97.46c-21.47,32.75-57.31,52.11-97.12,52.11Z" fill="#ff00c8" opacity=".02"/>
          <path d="m567.08,731.34c-32.83,0-63.05-17.63-79.32-45.61-28.11-16.3-45.21-45.78-45.21-78.91s17.64-63.03,45.61-79.31c16.32-28.11,45.79-45.21,78.92-45.21s63.02,17.63,79.29,45.59c28.11,16.3,45.22,45.79,45.22,78.92s-17.63,63.02-45.61,79.29c-16.3,28.11-45.78,45.22-78.91,45.22Z" fill="#ff00c8" opacity=".03"/>
          <path d="m567.08,706.28c-26.64,0-50.16-15.76-60.74-39.11-23.39-10.69-38.73-33.76-38.73-60.34s15.76-50.15,39.11-60.73c10.71-23.39,33.77-38.73,60.36-38.73s50.13,15.75,60.71,39.1c23.39,10.69,38.74,33.77,38.74,60.36s-15.76,50.13-39.11,60.71c-10.69,23.39-33.76,38.74-60.34,38.74Z" fill="#ff00c8" opacity=".04"/>
          <path d="m567.08,681.23c-20.26,0-37.19-14.27-40.86-33.76-19.65-4.07-33.55-20.6-33.55-40.64s14.27-37.18,33.76-40.85c4.07-19.65,20.6-33.55,40.65-33.55s37.16,14.25,40.84,33.74c19.66,4.07,33.56,20.6,33.56,40.65s-14.27,37.16-33.76,40.84c-4.07,19.66-20.6,33.56-40.64,33.56Z" fill="#ff00c8" opacity=".05"/>
          <path d="m567.08,676.21c-19.01,0-34.67-14.57-36.42-33.1-18.99-2.26-32.98-17.67-32.98-36.28s14.57-34.66,33.1-36.41c2.26-18.99,17.68-32.98,36.29-32.98s34.64,14.55,36.39,33.09c19.01,2.26,32.99,17.67,32.99,36.29s-14.55,34.64-33.1,36.39c-2.26,19.01-17.67,32.99-36.28,32.99Z" fill="#ff00c8" opacity=".05"/>
          <path d="m567.08,693.76c-23.62,0-43.75-14.89-51.13-36.25-21.09-7.75-35.81-27.71-35.81-50.67s14.89-43.74,36.25-51.12c7.75-21.09,27.72-35.81,50.69-35.81s43.73,14.89,51.1,36.24c21.1,7.73,35.82,27.71,35.82,50.69s-14.89,43.73-36.25,51.1c-7.73,21.1-27.71,35.82-50.67,35.82Z" fill="#ff00c8" opacity=".05"/>
          <path d="m567.08,671.2c-17.4,0-31.57-14.15-31.57-31.55v-1.27h-1.25c-17.4,0-31.57-14.15-31.57-31.55s14.17-31.57,31.57-31.57h1.25v-1.24c0-17.4,14.17-31.57,31.57-31.57s31.55,14.17,31.55,31.57v1.24h1.25c17.4,0,31.57,14.17,31.57,31.57s-14.17,31.55-31.57,31.55h-1.25v1.27c0,17.4-14.15,31.55-31.55,31.55Z" fill="#ff00c8" opacity=".05"/>
          <path d="m567.08,666.19c-14.64,0-26.55-11.9-26.55-26.54v-6.28h-6.26c-14.64,0-26.55-11.9-26.55-26.54s11.92-26.55,26.55-26.55h6.26v-6.25c0-14.64,11.92-26.55,26.55-26.55s26.54,11.92,26.54,26.55v6.25h6.26c14.64,0,26.55,11.92,26.55,26.55s-11.92,26.54-26.55,26.54h-6.26v6.28c0,14.64-11.9,26.54-26.54,26.54Z" fill="#ff00c8" opacity=".05"/>
          <path d="m567.08,661.18c-11.87,0-21.54-9.65-21.54-21.53v-11.29h-11.28c-11.87,0-21.54-9.65-21.54-21.53s9.67-21.54,21.54-21.54h11.28v-11.26c0-11.87,9.67-21.54,21.54-21.54s21.53,9.67,21.53,21.54v11.26h11.28c11.87,0,21.54,9.67,21.54,21.54s-9.67,21.53-21.54,21.53h-11.28v11.29c0,11.87-9.65,21.53-21.53,21.53Z" fill="#ff00c8" opacity=".05"/>
          <path d="m597.14,658.67c-7.73,0-14.02-6.28-14.02-14.01v-18.81h-18.79c-7.73,0-14.02-6.28-14.02-14.01s6.29-14.02,14.02-14.02h18.79v-18.78c0-7.73,6.29-14.02,14.02-14.02s14.01,6.29,14.01,14.02v18.78h18.79c7.73,0,14.02,6.29,14.02,14.02s-6.29,14.01-14.02,14.01h-18.79v18.81c0,7.73-6.28,14.01-14.01,14.01Z" fill="#ccc" mix-blend-mode="multiply"/>
          <path d="m567.08,653.66c-7.73,0-14.02-6.28-14.02-14.01v-18.81h-18.79c-7.73,0-14.02-6.28-14.02-14.01s6.29-14.02,14.02-14.02h18.79v-18.78c0-7.73,6.29-14.02,14.02-14.02s14.01,6.29,14.01,14.02v18.78h18.79c7.73,0,14.02,6.29,14.02,14.02s-6.29,14.01-14.02,14.01h-18.79v18.81c0,7.73-6.28,14.01-14.01,14.01Z" fill="#f400cb"/>
          <path d="m567.08,648.65c-4.97,0-9.01-4.04-9.01-9v-23.82h-23.81c-4.97,0-9.01-4.04-9.01-9s4.04-9.01,9.01-9.01h23.81v-23.79c0-4.97,4.04-9.01,9.01-9.01s9,4.04,9,9.01v23.79h23.81c4.97,0,9.01,4.04,9.01,9.01s-4.04,9-9.01,9h-23.81v23.82c0,4.95-4.04,9-9,9Z" fill="#ff55eb"/>
          <path d="m567.08,646.14c-3.59,0-6.51-2.92-6.51-6.49v-26.33h-26.31c-3.59,0-6.51-2.92-6.51-6.49s2.92-6.51,6.51-6.51h26.31v-26.3c0-3.59,2.92-6.51,6.51-6.51s6.49,2.92,6.49,6.51v26.3h26.31c3.59,0,6.51,2.92,6.51,6.51s-2.92,6.49-6.51,6.49h-26.31v26.33c0,3.57-2.92,6.49-6.49,6.49Z" fill="#ffa9f0"/>
          <path d="m567.08,643.64c-2.21,0-4-1.79-4-3.99v-28.83h-28.82c-2.21,0-4-1.79-4-3.99s1.79-4,4-4h28.82v-28.8c0-2.21,1.79-4,4-4s3.99,1.79,3.99,4v28.8h28.82c2.21,0,4,1.79,4,4s-1.79,3.99-4,3.99h-28.82v28.83c0,2.19-1.79,3.99-3.99,3.99Z" fill="#ffc0f4"/>
        </g>
        <g>
          <path d="m534.26,897.42c-96.17,0-174.4-78.24-174.4-174.4s78.24-174.39,174.4-174.39h65.62c96.17,0,174.4,78.24,174.4,174.39s-78.24,174.4-174.4,174.4h-65.62Z" fill="#ff00c7" opacity="0"/>
          <path d="m534.26,864.84c-78.2,0-141.83-63.63-141.83-141.83s63.63-141.81,141.83-141.81h65.62c78.2,0,141.83,63.62,141.83,141.81s-63.63,141.83-141.83,141.83h-65.62Z" fill="#ff00c8" opacity="0"/>
          <path d="m534.26,839.78c-64.39,0-116.77-52.38-116.77-116.77s52.38-116.75,116.77-116.75h65.62c64.39,0,116.77,52.38,116.77,116.75s-52.38,116.77-116.77,116.77h-65.62Z" fill="#ff00c8" opacity=".02"/>
          <path d="m534.26,814.72c-50.56,0-91.71-41.15-91.71-91.71s41.15-91.69,91.71-91.69h65.62c50.56,0,91.71,41.13,91.71,91.69s-41.15,91.71-91.71,91.71h-65.62Z" fill="#ff00c8" opacity=".03"/>
          <path d="m534.26,789.66c-36.75,0-66.65-29.9-66.65-66.65s29.9-66.64,66.65-66.64h65.62c36.75,0,66.65,29.9,66.65,66.64s-29.9,66.65-66.65,66.65h-65.62Z" fill="#ff00c8" opacity=".04"/>
          <path d="m534.26,764.6c-22.94,0-41.59-18.65-41.59-41.59s18.65-41.58,41.59-41.58h65.62c22.94,0,41.59,18.65,41.59,41.58s-18.65,41.59-41.59,41.59h-65.62Z" fill="#ff00c8" opacity=".05"/>
          <path d="m534.26,759.59c-20.18,0-36.58-16.4-36.58-36.58s16.4-36.56,36.58-36.56h65.62c20.18,0,36.58,16.4,36.58,36.56s-16.4,36.58-36.58,36.58h-65.62Z" fill="#ff00c8" opacity=".05"/>
          <path d="m534.26,777.13c-29.84,0-54.12-24.28-54.12-54.12s24.28-54.11,54.12-54.11h65.62c29.84,0,54.12,24.28,54.12,54.11s-24.28,54.12-54.12,54.12h-65.62Z" fill="#ff00c8" opacity=".05"/>
          <path d="m534.26,754.58c-17.4,0-31.57-14.17-31.57-31.57s14.17-31.55,31.57-31.55h65.62c17.4,0,31.57,14.15,31.57,31.55s-14.17,31.57-31.57,31.57h-65.62Z" fill="#ff00c8" opacity=".05"/>
          <path d="m534.26,749.57c-14.64,0-26.55-11.92-26.55-26.55s11.92-26.54,26.55-26.54h65.62c14.64,0,26.55,11.9,26.55,26.54s-11.92,26.55-26.55,26.55h-65.62Z" fill="#ff00c8" opacity=".05"/>
          <path d="m534.26,744.56c-11.87,0-21.54-9.67-21.54-21.54s9.67-21.53,21.54-21.53h65.62c11.87,0,21.54,9.65,21.54,21.53s-9.67,21.54-21.54,21.54h-65.62Z" fill="#ff00c8" opacity=".05"/>
          <path d="m564.32,742.05c-7.73,0-14.02-6.29-14.02-14.02s6.29-14.01,14.02-14.01h65.62c7.73,0,14.02,6.28,14.02,14.01s-6.29,14.02-14.02,14.02h-65.62Z" fill="#ccc" mix-blend-mode="multiply"/>
          <path d="m534.26,737.04c-7.73,0-14.02-6.29-14.02-14.02s6.29-14.01,14.02-14.01h65.62c7.73,0,14.02,6.28,14.02,14.01s-6.29,14.02-14.02,14.02h-65.62Z" fill="#f400cb"/>
          <path d="m534.26,732.03c-4.97,0-9.01-4.04-9.01-9.01s4.04-9,9.01-9h65.62c4.97,0,9.01,4.04,9.01,9s-4.04,9.01-9.01,9.01h-65.62Z" fill="#ff55eb"/>
          <path d="m534.26,729.52c-3.59,0-6.51-2.92-6.51-6.51s2.92-6.49,6.51-6.49h65.62c3.59,0,6.51,2.92,6.51,6.49s-2.92,6.51-6.51,6.51h-65.62Z" fill="#ffa9f0"/>
          <path d="m534.26,727.02c-2.21,0-4-1.79-4-4s1.79-3.99,4-3.99h65.62c2.21,0,4,1.79,4,3.99s-1.79,4-4,4h-65.62Z" fill="#ffc0f4"/>
        </g>
        <g>
          <path d="m646.8,877.39c-96.17,0-174.4-78.24-174.4-174.39s78.24-174.4,174.4-174.4h65.61c96.17,0,174.4,78.24,174.4,174.4s-78.24,174.39-174.4,174.39h-65.61Z" fill="#ff00c7" opacity="0"/>
          <path d="m646.8,844.81c-78.2,0-141.83-63.62-141.83-141.81s63.63-141.83,141.83-141.83h65.61c78.2,0,141.83,63.63,141.83,141.83s-63.63,141.81-141.83,141.81h-65.61Z" fill="#ff00c8" opacity="0"/>
          <path d="m646.8,819.75c-64.39,0-116.77-52.38-116.77-116.75s52.38-116.77,116.77-116.77h65.61c64.39,0,116.77,52.38,116.77,116.77s-52.38,116.75-116.77,116.75h-65.61Z" fill="#ff00c8" opacity=".02"/>
          <path d="m646.8,794.69c-50.56,0-91.71-41.13-91.71-91.69s41.15-91.71,91.71-91.71h65.61c50.56,0,91.71,41.15,91.71,91.71s-41.15,91.69-91.71,91.69h-65.61Z" fill="#ff00c8" opacity=".03"/>
          <path d="m646.8,769.63c-36.75,0-66.65-29.9-66.65-66.64s29.9-66.65,66.65-66.65h65.61c36.75,0,66.65,29.9,66.65,66.65s-29.9,66.64-66.65,66.64h-65.61Z" fill="#ff00c8" opacity=".04"/>
          <path d="m646.8,744.57c-22.94,0-41.59-18.65-41.59-41.58s18.65-41.59,41.59-41.59h65.61c22.94,0,41.59,18.65,41.59,41.59s-18.65,41.58-41.59,41.58h-65.61Z" fill="#ff00c8" opacity=".05"/>
          <path d="m646.8,739.56c-20.18,0-36.58-16.4-36.58-36.56s16.4-36.58,36.58-36.58h65.61c20.18,0,36.58,16.4,36.58,36.58s-16.4,36.56-36.58,36.56h-65.61Z" fill="#ff00c8" opacity=".05"/>
          <path d="m646.8,757.1c-29.84,0-54.12-24.28-54.12-54.11s24.28-54.12,54.12-54.12h65.61c29.84,0,54.12,24.28,54.12,54.12s-24.28,54.11-54.12,54.11h-65.61Z" fill="#ff00c8" opacity=".05"/>
          <path d="m646.8,734.55c-17.4,0-31.57-14.15-31.57-31.55s14.17-31.57,31.57-31.57h65.61c17.4,0,31.57,14.17,31.57,31.57s-14.17,31.55-31.57,31.55h-65.61Z" fill="#ff00c8" opacity=".05"/>
          <path d="m646.8,729.54c-14.64,0-26.55-11.9-26.55-26.54s11.92-26.55,26.55-26.55h65.61c14.64,0,26.55,11.92,26.55,26.55s-11.92,26.54-26.55,26.54h-65.61Z" fill="#ff00c8" opacity=".05"/>
          <path d="m646.8,724.52c-11.87,0-21.54-9.65-21.54-21.53s9.67-21.54,21.54-21.54h65.61c11.87,0,21.54,9.67,21.54,21.54s-9.67,21.53-21.54,21.53h-65.61Z" fill="#ff00c8" opacity=".05"/>
          <path d="m676.86,722.02c-7.73,0-14.02-6.28-14.02-14.01s6.29-14.02,14.02-14.02h65.61c7.73,0,14.02,6.29,14.02,14.02s-6.29,14.01-14.02,14.01h-65.61Z" fill="#ccc" mix-blend-mode="multiply"/>
          <path d="m646.8,717.01c-7.73,0-14.02-6.28-14.02-14.01s6.29-14.02,14.02-14.02h65.61c7.73,0,14.02,6.29,14.02,14.02s-6.29,14.01-14.02,14.01h-65.61Z" fill="#f400cb"/>
          <path d="m646.8,711.99c-4.97,0-9.01-4.04-9.01-9s4.04-9.01,9.01-9.01h65.61c4.97,0,9.01,4.04,9.01,9.01s-4.04,9-9.01,9h-65.61Z" fill="#ff55eb"/>
          <path d="m646.8,709.49c-3.59,0-6.51-2.92-6.51-6.49s2.92-6.51,6.51-6.51h65.61c3.59,0,6.51,2.92,6.51,6.51s-2.92,6.49-6.51,6.49h-65.61Z" fill="#ffa9f0"/>
          <path d="m646.8,706.98c-2.21,0-4-1.79-4-3.99s1.79-4,4-4h65.61c2.21,0,4,1.79,4,4s-1.79,3.99-4,3.99h-65.61Z" fill="#ffc0f4"/>
        </g>
        <g>
          <path d="m646.8,916.24c-96.17,0-174.4-78.24-174.4-174.4s78.24-174.39,174.4-174.39h65.61c96.17,0,174.4,78.24,174.4,174.39s-78.24,174.4-174.4,174.4h-65.61Z" fill="#ff00c7" opacity="0"/>
          <path d="m646.8,883.67c-78.2,0-141.83-63.63-141.83-141.83s63.63-141.81,141.83-141.81h65.61c78.2,0,141.83,63.62,141.83,141.81s-63.63,141.83-141.83,141.83h-65.61Z" fill="#ff00c8" opacity="0"/>
          <path d="m646.8,858.61c-64.39,0-116.77-52.38-116.77-116.77s52.38-116.75,116.77-116.75h65.61c64.39,0,116.77,52.38,116.77,116.75s-52.38,116.77-116.77,116.77h-65.61Z" fill="#ff00c8" opacity=".02"/>
          <path d="m646.8,833.55c-50.56,0-91.71-41.15-91.71-91.71s41.15-91.69,91.71-91.69h65.61c50.56,0,91.71,41.13,91.71,91.69s-41.15,91.71-91.71,91.71h-65.61Z" fill="#ff00c8" opacity=".03"/>
          <path d="m646.8,808.49c-36.75,0-66.65-29.9-66.65-66.65s29.9-66.64,66.65-66.64h65.61c36.75,0,66.65,29.9,66.65,66.64s-29.9,66.65-66.65,66.65h-65.61Z" fill="#ff00c8" opacity=".04"/>
          <path d="m646.8,783.43c-22.94,0-41.59-18.65-41.59-41.59s18.65-41.58,41.59-41.58h65.61c22.94,0,41.59,18.65,41.59,41.58s-18.65,41.59-41.59,41.59h-65.61Z" fill="#ff00c8" opacity=".05"/>
          <path d="m646.8,778.42c-20.18,0-36.58-16.4-36.58-36.58s16.4-36.56,36.58-36.56h65.61c20.18,0,36.58,16.4,36.58,36.56s-16.4,36.58-36.58,36.58h-65.61Z" fill="#ff00c8" opacity=".05"/>
          <path d="m646.8,795.96c-29.84,0-54.12-24.28-54.12-54.12s24.28-54.11,54.12-54.11h65.61c29.84,0,54.12,24.28,54.12,54.11s-24.28,54.12-54.12,54.12h-65.61Z" fill="#ff00c8" opacity=".05"/>
          <path d="m646.8,773.4c-17.4,0-31.57-14.17-31.57-31.57s14.17-31.55,31.57-31.55h65.61c17.4,0,31.57,14.15,31.57,31.55s-14.17,31.57-31.57,31.57h-65.61Z" fill="#ff00c8" opacity=".05"/>
          <path d="m646.8,768.39c-14.64,0-26.55-11.92-26.55-26.55s11.92-26.54,26.55-26.54h65.61c14.64,0,26.55,11.9,26.55,26.54s-11.92,26.55-26.55,26.55h-65.61Z" fill="#ff00c8" opacity=".05"/>
          <path d="m646.8,763.38c-11.87,0-21.54-9.67-21.54-21.54s9.67-21.53,21.54-21.53h65.61c11.87,0,21.54,9.65,21.54,21.53s-9.67,21.54-21.54,21.54h-65.61Z" fill="#ff00c8" opacity=".05"/>
          <path d="m676.86,760.87c-7.73,0-14.02-6.29-14.02-14.02s6.29-14.01,14.02-14.01h65.61c7.73,0,14.02,6.28,14.02,14.01s-6.29,14.02-14.02,14.02h-65.61Z" fill="#ccc" mix-blend-mode="multiply"/>
          <path d="m646.8,755.86c-7.73,0-14.02-6.29-14.02-14.02s6.29-14.01,14.02-14.01h65.61c7.73,0,14.02,6.28,14.02,14.01s-6.29,14.02-14.02,14.02h-65.61Z" fill="#f400cb"/>
          <path d="m646.8,750.85c-4.97,0-9.01-4.04-9.01-9.01s4.04-9,9.01-9h65.61c4.97,0,9.01,4.04,9.01,9s-4.04,9.01-9.01,9.01h-65.61Z" fill="#ff55eb"/>
          <path d="m646.8,748.34c-3.59,0-6.51-2.92-6.51-6.51s2.92-6.49,6.51-6.49h65.61c3.59,0,6.51,2.92,6.51,6.49s-2.92,6.51-6.51,6.51h-65.61Z" fill="#ffa9f0"/>
          <path d="m646.8,745.84c-2.21,0-4-1.79-4-4s1.79-3.99,4-3.99h65.61c2.21,0,4,1.79,4,3.99s-1.79,4-4,4h-65.61Z" fill="#ffc0f4"/>
        </g>
        <g>
          <path d="m679.5,748.46c-46.12,0-89.69-17.98-122.71-50.65-16.56-16.64-29.79-36.38-38.4-57.2-8.74-21.37-13.16-43.73-13.16-66.55,0-21.54,3.9-42.64,11.56-62.71,9.75-23.92,22.99-44.18,39.58-60.73,32.52-32.39,77.4-50.94,123.13-50.94,10.52,0,21.16.98,31.61,2.91,5.57.75,12.57,2.48,23.04,5.81l8.03,2.75,7.53,3.2c10.25,4.79,15.11,7.44,19.52,10.05,16.3,10.51,26.61,18.82,36.39,29.17,13.26,12.67,25.93,31.81,34.78,52.99,9.35,23.98,13.61,45.24,13.61,67.49s-4.4,44.85-13.07,66.07c-9.97,23.38-23.52,43.24-40.42,59.4-12.62,13.34-31.81,26.13-53.17,35.13-22.82,9.31-44.95,13.8-67.87,13.8Z" fill="#ff00c7" opacity="0"/>
          <path d="m679.5,715.88c-37.52,0-72.94-14.64-99.77-41.22-13.61-13.51-24.55-29.91-31.62-47.46-6.48-14-10.29-33.25-10.29-53.14,0-16.77,2.79-32.68,8.51-48.62l2.06-5.8,10.34-20.43,13.16-17.73,4.88-4.97c28.39-28.95,63.94-44.28,102.74-44.28l8.83.37c18.54,1.87,40.72,5.72,64.7,20.08l13.55,8.96,20.46,19.18,11.95,16.73.63,1.11c10.54,18.68,21.83,42.89,21.83,75.41,0,18.17-3.32,35.35-10.15,52.51l-1.21,2.83-5.71,12.1-8.77,14.48-16.83,19.73-13.03,10.78-.91.63c-10.74,7.5-41.13,28.75-85.34,28.75Z" fill="#ff00c8" opacity="0"/>
          <path d="m679.5,690.82c-30.85,0-60.03-12.06-82.13-33.96-11.22-11.13-20.22-24.63-26.04-39.04-5.28-11.49-8.46-27.41-8.46-43.75,0-13.85,2.31-27,7.03-40.17l1.55-4.36,8.66-17.11,10.85-14.61,3.66-3.72c23.61-24.08,52.97-36.81,84.89-36.81l6.31.25c16.57,1.67,34.64,4.85,54.35,16.64l10.84,7.18,17.1,16.03,9.75,13.67.64,1.12c8.71,15.46,17.9,35.2,17.9,61.88,0,14.92-2.73,29.07-8.37,43.24l-.95,2.22-4.78,10.11-7.05,11.63-14.11,16.54-10.48,8.67-.91.63c-8.94,6.25-33.92,23.71-70.24,23.71Z" fill="#ff00c8" opacity=".02"/>
          <path d="m679.5,665.76c-24.21,0-47.11-9.48-64.49-26.7-8.81-8.74-15.89-19.34-20.45-30.63-4.13-9.01-6.64-21.57-6.64-34.37,0-10.95,1.82-21.31,5.55-31.71l1.04-2.92,6.98-13.78,8.54-11.5,2.45-2.49c18.78-19.15,41.97-29.32,67.02-29.32l3.8.13c14.27,1.44,28.48,3.93,43.98,13.21l8.1,5.38,13.75,12.9,7.56,10.59.66,1.15c6.89,12.24,13.97,27.52,13.97,48.35,0,11.72-2.16,22.84-6.59,33.99l-.65,1.51-3.89,8.17-5.34,8.81-11.39,13.36-7.94,6.58-.87.6c-7.19,5.03-26.7,18.68-55.16,18.68Z" fill="#ff00c8" opacity=".03"/>
          <path d="m679.5,640.7c-17.56,0-34.2-6.91-46.84-19.44-6.41-6.35-11.56-14.04-14.86-22.21-2.99-6.58-4.8-15.55-4.8-24.99,0-8.03,1.34-15.63,4.07-23.25l.53-1.48,5.3-10.45,6.22-8.39,1.21-1.22c14.02-14.31,31.04-21.87,49.19-21.87h1.25l1.25.13c11.75,1.18,21.76,3.27,32.42,9.65l5.31,3.56,10.45,9.81,5.37,7.5.67,1.18c4.95,8.83,10.04,19.88,10.04,34.83,0,8.51-1.58,16.6-4.81,24.73l-3.35,7.03-3.63,5.99-8.67,10.17-5.45,4.51-.84.58c-8.34,5.84-21.59,13.61-40.02,13.61Z" fill="#ff00c8" opacity=".04"/>
          <path d="m679.5,615.64c-10.92,0-21.29-4.33-29.2-12.17-4.03-3.99-7.23-8.76-9.27-13.8-1.91-4.21-2.98-9.68-2.98-15.61,0-5.11.85-9.95,2.59-14.79l3.63-7.16,3.93-5.3c9.37-9.55,20.05-14.35,31.31-14.35,10.49,1.05,16.13,2.68,22.06,6.22l2.48,1.68,7.2,6.76,3.15,4.4c3.66,6.51,6.82,13.43,6.82,22.54,0,5.3-1,10.35-3.03,15.46l-2.09,4.31-1.98,3.26-5.95,6.98-2.99,2.48c-6.58,4.6-14.55,9.08-25.67,9.08Z" fill="#ff00c8" opacity=".05"/>
          <path d="m679.5,610.63c-9.57,0-18.69-3.8-25.67-10.72-3.53-3.49-6.36-7.67-8.14-12.1-1.68-3.7-2.62-8.51-2.62-13.74,0-4.54.75-8.83,2.29-13.1l3.37-6.56,3.46-4.56c8.13-8.24,17.44-12.37,27.32-12.37,9.33.95,14.28,2.39,19.48,5.51l2.24,1.52,6.56,6.25,2.48,3.6c3.16,5.67,5.94,11.76,5.94,19.71,0,4.67-.88,9.11-2.68,13.61l-1.94,3.96-1.75,2.85-5.47,6.31-2.32,1.85c-5.74,3.99-12.83,7.99-22.55,7.99Z" fill="#ff00c8" opacity=".05"/>
          <path d="m679.5,628.17c-14.24,0-27.75-5.61-38.02-15.8-5.24-5.17-9.41-11.4-12.07-18.03-2.43-5.33-3.89-12.59-3.89-20.28,0-6.59,1.1-12.81,3.33-19.04l.38-1.07,4.6-8.94,5.07-6.68.8-.81c11.35-11.5,25.12-17.6,39.81-17.6h.9l.88.1c10.07,1.03,18.04,2.71,26.73,7.92l4.27,2.88,8.91,8.49,3.99,5.79.4.71c4.03,7.23,8.16,16.25,8.16,28.25,0,6.91-1.28,13.48-3.93,20.1l-2.85,5.94-2.93,4.78-7.46,8.6-3.59,2.86c-8.39,5.87-18.82,11.82-33.49,11.82Z" fill="#ff00c8" opacity=".05"/>
          <path d="m679.5,605.62c-8.24,0-16.1-3.29-22.14-9.27-3.06-3.02-5.5-6.62-7.03-10.42-1.45-3.2-2.25-7.36-2.25-11.86,0-3.96.65-7.69,1.99-11.39l3.1-5.97,2.96-3.77c6.91-6.96,14.88-10.45,23.38-10.45,8.14.85,12.43,2.11,16.9,4.8l1.96,1.35,5.94,5.72,1.74,2.71c2.66,4.8,5.14,10.18,5.14,17,0,4-.75,7.85-2.32,11.75l-1.78,3.6-1.51,2.42-4.97,5.65-1.51,1.1c-5.3,3.67-11.28,7.03-19.61,7.03Z" fill="#ff00c8" opacity=".05"/>
          <path d="m679.5,600.61c-6.92,0-13.53-2.78-18.62-7.82-2.56-2.53-4.61-5.55-5.91-8.74-1.21-2.69-1.88-6.19-1.88-9.98,0-3.37.56-6.54,1.69-9.68l2.82-5.34,2.41-2.92c5.7-5.72,12.36-8.63,19.51-8.63,6.95.75,10.55,1.81,14.31,4.07l1.71,1.18,5.27,5.18.87,1.57c2.71,4.86,4.51,9.18,4.51,14.57,0,3.35-.64,6.58-1.96,9.9l-1.61,3.22-1.25,1.96-4.11,4.6-1.07.77c-4.24,2.95-9.37,6.09-16.67,6.09Z" fill="#ff00c8" opacity=".05"/>
          <path d="m679.5,595.6c-5.6,0-10.95-2.26-15.09-6.36-2.11-2.08-3.76-4.53-4.8-7.08-.97-2.16-1.51-4.97-1.51-8.09,0-2.79.46-5.38,1.4-7.96l2.52-4.68,1.75-1.98c4.58-4.6,10.07-6.93,15.75-6.93,5.8.65,8.73,1.55,11.73,3.36l.77.46,4.76,4.68.53.94c2.39,4.29,3.87,7.8,3.87,12.12,0,2.71-.53,5.33-1.61,8.03l-1.42,2.83-.95,1.44-3.27,3.6-.63.44c-3.76,2.62-7.92,5.18-13.78,5.18Z" fill="#ff00c8" opacity=".05"/>
          <path d="m709.57,593.09c-3.6,0-7.09-1.49-9.81-4.19-1.37-1.35-2.45-2.93-3.1-4.56-.64-1.44-.97-3.2-.97-5.27,0-1.91.31-3.66.94-5.37l1.62-2.9,1.21-1.37c2.9-2.89,6.51-4.4,10.12-4.4,3.96.48,5.89,1.1,7.86,2.28l3.36,3.3c2.08,3.73,2.92,5.92,2.92,8.46,0,1.71-.34,3.42-1.07,5.23l-.19.5-.53.98-.95,1.44-1.94,2.04c-3.77,2.63-6.21,3.83-9.48,3.83Z" fill="#ccc" mix-blend-mode="multiply"/>
          <path d="m679.5,588.08c-3.6,0-7.09-1.49-9.81-4.19-1.37-1.35-2.45-2.93-3.1-4.56-.64-1.44-.97-3.2-.97-5.27,0-1.91.31-3.66.94-5.37l1.62-2.9,1.21-1.37c2.9-2.89,6.51-4.4,10.12-4.4,3.96.48,5.89,1.1,7.86,2.28l3.36,3.3c2.08,3.73,2.92,5.92,2.92,8.46,0,1.71-.34,3.42-1.07,5.23l-.19.5-.53.98-.95,1.44-1.94,2.04c-3.77,2.63-6.21,3.83-9.48,3.83Z" fill="#f400cb"/>
          <path d="m679.5,583.07c-2.26,0-4.5-.97-6.28-2.73-.88-.87-1.59-1.89-1.99-2.88-.4-.91-.6-2.04-.6-3.39s.2-2.48.63-3.63l.16-.44.51-.88,1.21-1.37c1.77-1.74,4.1-2.71,6.38-2.71,2.95.4,4.16.88,5.27,1.55l2.29,2.45c1.22,2.46,1.57,3.74,1.57,5.03,0,1.05-.23,2.16-.71,3.39l-.23.54-.95,1.44-1.25,1.21c-2.73,1.84-4.19,2.42-5.99,2.42Z" fill="#ff55eb"/>
          <path d="m679.5,580.56c-1.61,0-3.2-.71-4.51-2.01-.64-.63-1.17-1.37-1.44-2.04-.27-.63-.41-1.44-.41-2.45s.16-1.91.47-2.76l.2-.53,1.21-1.37c1.17-1.15,2.85-1.87,4.5-1.87,2.25.33,3.15.7,3.99,1.2l1.68,1.94c.75,1.68.95,2.59.95,3.39,0,.94-.3,1.85-.54,2.46l-.23.53-.83.74-.44.77c-2.51,1.68-3.47,1.99-4.6,1.99Z" fill="#ffa9f0"/>
          <path d="m679.5,578.05c-.94,0-1.92-.46-2.76-1.28-.47-.47-.77-.95-.88-1.22-.14-.33-.21-.85-.21-1.48,0-.71.1-1.31.31-1.88.01-.01.31-.5.81-.98.71-.71,1.75-1.15,2.75-1.15,1.61.26,2.19.54,2.69.84l.98,1.3c.37.97.44,1.55.44,1.88,0,.41-.13.95-.36,1.51l-.4.36-.84,1.21c-1.45.8-2.01.91-2.53.91Z" fill="#ffc0f4"/>
        </g>
        <g>
          <path d="m679.63,814.07c-46.2,0-89.82-17.98-122.83-50.65-33.39-33.63-51.7-77.53-51.7-123.76,0-22.85,4.49-45.26,13.33-66.62,7.18-18.84,19.78-38.09,36.17-55.02,32.73-33.45,78.25-52.58,124.98-52.58s90.06,18.17,122.21,49.83c16.97,16.08,30.53,36.44,39.92,60.16,8.02,19.46,12.33,41.78,12.33,64.23,0,46.46-18.2,90.23-51.22,123.25-32.93,32.98-76.69,51.16-123.19,51.16Z" fill="#ff00c7" opacity="0"/>
          <path d="m679.63,781.49c-37.7,0-71.96-13.98-99.08-40.42-27.79-28.41-42.87-64.27-42.87-101.41,0-19.35,3.94-38.26,11.7-56.18,5.15-14,16.37-30.64,30.3-44.45,24.68-25.87,61.25-41.01,99.9-41.01s75.24,15.56,101.59,42.7l3.6,3.96,10.75,13.18,3.62,6.04c6.11,10.19,22.33,37.26,22.33,75.76s-15.19,74.31-42.76,101.25c-25.26,26-60.61,40.58-99.07,40.58Z" fill="#ff00c8" opacity="0"/>
          <path d="m679.63,756.43c-31.03,0-59.25-11.52-81.59-33.3-22.92-23.44-35.31-52.92-35.31-83.46,0-15.92,3.25-31.47,9.64-46.23,4.27-11.52,13.54-25.3,24.95-36.61,20.29-21.27,50.43-33.74,82.25-33.74s61.97,12.8,83.62,35.1l3,3.32,8.74,10.76,2.69,4.5c5.13,8.56,18.77,31.3,18.77,62.9s-12.5,61.14-35.21,83.34c-20.8,21.4-49.92,33.43-81.56,33.43Z" fill="#ff00c8" opacity=".02"/>
          <path d="m679.63,731.37c-24.36,0-46.53-9.06-64.1-26.18-18.04-18.45-27.74-41.58-27.74-65.52,0-12.47,2.55-24.67,7.57-36.28,3.37-9.03,10.68-19.93,19.59-28.78,15.9-16.66,39.63-26.47,64.61-26.47s48.68,10.02,65.65,27.49l2.31,2.58,6.82,8.43,1.78,2.98c4.56,7.6,15.21,25.36,15.21,50.05s-9.82,47.98-27.67,65.42c-16.35,16.8-39.24,26.28-64.04,26.28Z" fill="#ff00c8" opacity=".03"/>
          <path d="m679.63,706.31c-17.68,0-33.82-6.59-46.62-19.07-13.16-13.47-20.16-30.2-20.16-47.58,0-9.01,1.85-17.87,5.51-26.31,2.51-6.65,7.72-14.48,14.25-20.97,11.49-12.02,28.76-19.18,46.96-19.18s35.41,7.26,47.67,19.89l1.51,1.71,5,6.21.9,1.49c3.77,6.29,11.63,19.38,11.63,37.16s-7.15,34.83-20.12,47.51c-11.89,12.2-28.56,19.14-46.53,19.14Z" fill="#ff00c8" opacity=".04"/>
          <path d="m679.63,681.25c-11.03,0-21.1-4.13-29.15-11.96-8.14-8.34-12.57-18.84-12.57-29.63,0-5.57,1.15-11.06,3.45-16.36,1.67-4.39,4.86-9.11,8.91-13.14,7.2-7.53,17.93-11.9,29.3-11.9s22.11,4.47,29.67,12.27l3.92,4.86c4.1,6.83,8.06,14.34,8.06,24.28,0,11.16-4.47,21.67-12.59,29.62-7.5,7.69-17.83,11.97-29,11.97Z" fill="#ff00c8" opacity=".05"/>
          <path d="m679.63,676.24c-9.7,0-18.57-3.65-25.64-10.54-7.16-7.35-11.06-16.56-11.06-26.04,0-4.88,1.03-9.72,3.03-14.38,1.47-3.84,4.27-8.02,7.85-11.56,6.32-6.61,15.75-10.45,25.77-10.45s19.45,3.92,26.07,10.75l3.6,4.5c3.59,6.05,6.96,12.57,6.96,21.14,0,9.8-3.93,19.04-11.08,26.03-6.61,6.78-15.69,10.55-25.5,10.55Z" fill="#ff00c8" opacity=".05"/>
          <path d="m679.63,693.78c-14.37,0-27.47-5.37-37.87-15.52-10.68-10.93-16.37-24.52-16.37-38.6,0-7.28,1.51-14.45,4.47-21.33,2.08-5.51,6.31-11.82,11.59-17.06,9.34-9.77,23.35-15.55,38.13-15.55s28.76,5.87,38.67,16.09l1.1,1.24,4.37,5.47.63,1.05c4.88,8.24,9.41,17.6,9.41,30.09,0,14.55-5.81,28.25-16.36,38.57-9.67,9.92-23.18,15.55-37.76,15.55Z" fill="#ff00c8" opacity=".05"/>
          <path d="m679.63,671.23c-8.37,0-16.02-3.15-22.14-9.11-6.19-6.35-9.55-14.28-9.55-22.45,0-4.2.88-8.37,2.62-12.39,1.27-3.32,3.7-6.95,6.78-10.01,5.42-5.67,13.55-8.98,22.24-8.98s16.79,3.36,22.47,9.23l3.29,4.13c3.05,5.24,5.87,10.78,5.87,18.03,0,8.44-3.4,16.42-9.57,22.45-5.7,5.84-13.54,9.11-22,9.11Z" fill="#ff00c8" opacity=".05"/>
          <path d="m679.63,666.22c-7.03,0-13.48-2.66-18.64-7.69-5.21-5.34-8.04-12.02-8.04-18.87,0-3.52.74-7.01,2.21-10.39,1.07-2.79,3.12-5.87,5.71-8.44,4.54-4.76,11.39-7.53,18.71-7.53s14.12,2.81,18.87,7.7l2.95,3.74c2.52,4.41,4.8,8.96,4.8,14.92,0,7.09-2.86,13.78-8.06,18.87-4.8,4.93-11.4,7.69-18.5,7.69Z" fill="#ff00c8" opacity=".05"/>
          <path d="m679.63,661.21c-5.7,0-10.94-2.16-15.14-6.26-4.26-4.36-6.54-9.74-6.54-15.28,0-2.8.6-5.64,1.79-8.4.87-2.28,2.51-4.76,4.64-6.88,3.66-3.83,9.23-6.08,15.18-6.08s11.46,2.25,15.28,6.18l2.56,3.32c2.25,4.02,3.76,7.45,3.76,11.86,0,5.72-2.32,11.15-6.55,15.28-3.9,4-9.27,6.26-14.99,6.26Z" fill="#ff00c8" opacity=".05"/>
          <path d="m709.7,658.7c-3.7,0-7.12-1.42-9.9-4.13-2.78-2.85-4.26-6.32-4.26-9.9,0-1.79.4-3.62,1.18-5.44.58-1.52,1.62-3.1,3.05-4.53,2.35-2.45,5.95-3.87,9.87-3.87s7.48,1.42,9.88,3.9l1.95,2.59c1.32,2.48,2.25,4.66,2.25,7.35,0,3.69-1.52,7.2-4.29,9.91-2.56,2.62-6.05,4.11-9.74,4.11Z" fill="#ccc" mix-blend-mode="multiply"/>
          <path d="m679.63,653.69c-3.7,0-7.12-1.42-9.9-4.13-2.78-2.85-4.26-6.32-4.26-9.9,0-1.79.4-3.62,1.18-5.44.58-1.52,1.62-3.1,3.05-4.53,2.35-2.45,5.95-3.87,9.87-3.87s7.48,1.42,9.88,3.9l1.95,2.59c1.32,2.48,2.25,4.66,2.25,7.35,0,3.69-1.52,7.2-4.29,9.91-2.56,2.62-6.05,4.11-9.74,4.11Z" fill="#f400cb"/>
          <path d="m679.63,648.68c-2.38,0-4.58-.94-6.39-2.71-1.78-1.82-2.75-4.06-2.75-6.31,0-1.1.26-2.26.77-3.46.24-.63.75-1.72,2.01-2.99,1.45-1.51,3.76-2.38,6.31-2.38s4.83.87,6.29,2.38l1.5,2.05c.75,1.5,1.28,2.85,1.28,4.4,0,2.32-.98,4.57-2.78,6.32-1.68,1.72-3.92,2.69-6.24,2.69Z" fill="#ff55eb"/>
          <path d="m679.63,646.17c-1.69,0-3.3-.68-4.64-1.99-1.28-1.31-1.99-2.93-1.99-4.51,0-.75.19-1.58.57-2.48.21-.56.57-1.3,1.48-2.22.98-1.01,2.68-1.62,4.53-1.62s3.52.61,4.5,1.62l1.25,1.75c.51,1.1.81,2.01.81,2.95,0,1.64-.71,3.25-2.02,4.53-1.24,1.27-2.85,1.98-4.49,1.98Z" fill="#ffa9f0"/>
          <path d="m679.63,643.66c-1.32,0-2.29-.7-2.89-1.28-.77-.78-1.24-1.79-1.24-2.72,0-.23.04-.73.37-1.51.16-.4.37-.83.97-1.44.43-.44,1.44-.87,2.73-.87s2.28.43,2.69.85l1.01,1.45c.23.56.36,1.1.36,1.51,0,.95-.44,1.92-1.27,2.73-.81.83-1.78,1.27-2.73,1.27Z" fill="#ffc0f4"/>
        </g>
        <g>
          <path d="m648.4,781.22c-96.17,0-174.4-78.24-174.4-174.39s78.24-174.39,174.4-174.39h65.62c96.15,0,174.39,78.23,174.39,174.39s-78.24,174.39-174.39,174.39h-65.62Z" fill="#ff00c7" opacity="0"/>
          <path d="m648.4,748.64c-78.2,0-141.83-63.62-141.83-141.81s63.63-141.83,141.83-141.83h65.62c78.2,0,141.81,63.63,141.81,141.83s-63.62,141.81-141.81,141.81h-65.62Z" fill="#ff00c8" opacity="0"/>
          <path d="m648.4,723.58c-64.39,0-116.77-52.38-116.77-116.75s52.38-116.77,116.77-116.77h65.62c64.37,0,116.75,52.38,116.75,116.77s-52.38,116.75-116.75,116.75h-65.62Z" fill="#ff00c8" opacity=".02"/>
          <path d="m648.4,698.52c-50.56,0-91.71-41.13-91.71-91.69s41.15-91.71,91.71-91.71h65.62c50.56,0,91.69,41.15,91.69,91.71s-41.13,91.69-91.69,91.69h-65.62Z" fill="#ff00c8" opacity=".03"/>
          <path d="m648.4,673.47c-36.75,0-66.65-29.9-66.65-66.64s29.9-66.65,66.65-66.65h65.62c36.73,0,66.64,29.9,66.64,66.65s-29.9,66.64-66.64,66.64h-65.62Z" fill="#ff00c8" opacity=".04"/>
          <path d="m648.4,648.41c-22.94,0-41.59-18.65-41.59-41.58s18.65-41.59,41.59-41.59h65.62c22.92,0,41.58,18.65,41.58,41.59s-18.65,41.58-41.58,41.58h-65.62Z" fill="#ff00c8" opacity=".05"/>
          <path d="m648.4,643.39c-20.18,0-36.58-16.4-36.58-36.56s16.4-36.58,36.58-36.58h65.62c20.16,0,36.56,16.4,36.56,36.58s-16.4,36.56-36.56,36.56h-65.62Z" fill="#ff00c8" opacity=".05"/>
          <path d="m648.4,660.94c-29.84,0-54.12-24.28-54.12-54.11s24.28-54.12,54.12-54.12h65.62c29.83,0,54.11,24.28,54.11,54.12s-24.28,54.11-54.11,54.11h-65.62Z" fill="#ff00c8" opacity=".05"/>
          <path d="m648.4,638.38c-17.4,0-31.57-14.15-31.57-31.55s14.17-31.57,31.57-31.57h65.62c17.4,0,31.55,14.17,31.55,31.57s-14.15,31.55-31.55,31.55h-65.62Z" fill="#ff00c8" opacity=".05"/>
          <path d="m648.4,633.37c-14.64,0-26.55-11.9-26.55-26.54s11.92-26.55,26.55-26.55h65.62c14.64,0,26.54,11.92,26.54,26.55s-11.9,26.54-26.54,26.54h-65.62Z" fill="#ff00c8" opacity=".05"/>
          <path d="m648.4,628.36c-11.87,0-21.54-9.65-21.54-21.53s9.67-21.54,21.54-21.54h65.62c11.87,0,21.53,9.67,21.53,21.54s-9.65,21.53-21.53,21.53h-65.62Z" fill="#ff00c8" opacity=".05"/>
          <path d="m678.47,625.85c-7.73,0-14.02-6.28-14.02-14.01s6.29-14.02,14.02-14.02h65.62c7.73,0,14.01,6.29,14.01,14.02s-6.28,14.01-14.01,14.01h-65.62Z" fill="#ccc" mix-blend-mode="multiply"/>
          <path d="m648.4,620.84c-7.73,0-14.02-6.28-14.02-14.01s6.29-14.02,14.02-14.02h65.62c7.73,0,14.01,6.29,14.01,14.02s-6.28,14.01-14.01,14.01h-65.62Z" fill="#f400cb"/>
          <path d="m648.4,615.83c-4.97,0-9.01-4.04-9.01-9s4.04-9.01,9.01-9.01h65.62c4.95,0,9,4.04,9,9.01s-4.04,9-9,9h-65.62Z" fill="#ff55eb"/>
          <path d="m648.4,613.32c-3.59,0-6.51-2.92-6.51-6.49s2.92-6.51,6.51-6.51h65.62c3.57,0,6.49,2.92,6.49,6.51s-2.92,6.49-6.49,6.49h-65.62Z" fill="#ffa9f0"/>
          <path d="m648.4,610.82c-2.21,0-4-1.79-4-3.99s1.79-4,4-4h65.62c2.19,0,3.99,1.79,3.99,4s-1.79,3.99-3.99,3.99h-65.62Z" fill="#ffc0f4"/>
        </g>
      </g>
    </g>
  </g>
</svg>