<?xml version="1.0" encoding="UTF-8"?>
<svg id="Layer_1" data-name="Layer 1" xmlns="http://www.w3.org/2000/svg" viewBox="0 0 1832 1537">
  <g>
    <path d="m859.6,822.69c-47.81,41.96-95.62,83.79-143.8,125.25-77.07,66.36-154.26,132.47-232.69,197.09-37.35,31.25-74.83,62.38-112.55,93.13-24.78,20.29-49.55,40.46-74.58,60.63v.12c-16.19,13.07-32.5,26.27-48.81,39.34-7.47,5.98-15.06,11.95-22.53,17.8h-.12c-30.13,23.78-60.26,47.56-90.51,71.09-42.46,33.24-85.16,65.99-128.73,97.86,42.08-45.32,85.16-89.52,128.73-133.34,24.78-25.15,49.68-50.05,74.7-75.07l10.08-10.08c25.65-25.15,51.29-50.3,77.07-75.32l.12-.12c24.78-24.15,49.55-48.18,74.58-72.21,22.41-21.54,44.94-43.08,67.6-64.37,73.33-70.34,147.91-139.32,222.73-208.04,44.45-40.71,89.02-81.18,133.84-121.39l6.35,5.6,36.23,32.12,22.29,19.92Z" fill="#f2f2f2"/>
    <path d="m1826.73,1525c-43.45-31.87-86.28-64.62-128.73-97.73-30.38-23.66-60.38-47.31-90.64-71.21-7.35-5.98-14.82-11.83-22.28-17.68l-48.81-39.47h-.12l-69.85-56.52c-1.62-1.37-3.24-2.61-4.86-3.98-37.97-30.75-75.07-62.25-112.67-93.25-78.44-64.62-155.5-130.85-232.57-197.09l-114.91-99.98-28.76-25.52,64.87-57.77,21.16,18.92,112.67,102.59c74.7,68.85,149.4,137.7,222.86,208.04,22.29,21.41,44.95,42.7,67.36,64.12,14.32,13.69,28.63,27.39,42.83,41.21l31.87,31.13.12.12,77.07,75.45,9.96,9.96.12.12c24.9,25.02,49.8,49.8,74.58,74.95,43.58,43.95,86.65,88.15,128.73,133.59Z" fill="#f2f2f2"/>
    <g>
      <rect x="792.43" y="1084.77" width="94.42" height="94.42" fill="#f2f2f2"/>
      <rect x="945.3" y="1084.77" width="94.42" height="94.42" fill="#f2f2f2"/>
      <rect x="792.43" y="1230.9" width="94.42" height="94.42" fill="#f2f2f2"/>
      <rect x="945.3" y="1230.9" width="94.42" height="94.42" fill="#f2f2f2"/>
    </g>
  </g>
  <g>
    <path d="m1179.94,538.33l-198.45,176.42-36.36,32.37-28.88,25.65-.12.12h-.12l-28.76-25.77-36.48-32.37L295.98,221.22v1009.83l-.12.12c-25.77,25.02-51.42,50.17-77.07,75.32l-9.96,9.96V27l707.29,629.23h.12l201.94-179.66,61.75,61.75Z" fill="#f2f2f2"/>
    <polygon points="1623.42 27 1623.42 1316.46 1623.29 1316.34 1613.33 1306.38 1536.27 1230.93 1536.27 221.22 1359.47 378.47 1297.72 316.71 1623.42 27" fill="#f2f2f2"/>
  </g>
</svg>